<?xml version="1.0" encoding="UTF-8"?>
<svg id="c" data-name="Laag 1" xmlns="http://www.w3.org/2000/svg" width="328mm" height="90mm" viewBox="0 0 929.76 255.12">
  <defs>
    <style>
      .f {
        fill: #a90061;
      }

      .g {
        fill: #fff;
      }

      .h {
        fill: #007bc7;
      }

      .i {
        fill: #d88cb7;
      }

      .j {
        fill: #ffb612;
      }
    </style>
  </defs>
  <rect class="g" y="0" width="929.76" height="255.12"/>
  <path class="j" d="M237.56,17.01h675.19v110.55c0,61.01-49.54,110.55-110.55,110.55H237.56V17.01h0Z"/>
  <rect class="f" x="17.01" y="17.01" width="110.55" height="110.55" transform="translate(144.57 144.57) rotate(180)"/>
  <rect class="h" x="127.56" y="17.01" width="110.55" height="110.55"/>
  <rect class="i" x="127.56" y="127.56" width="110.55" height="110.55"/>
  <rect class="j" x="17.01" y="127.56" width="110.55" height="110.55" transform="translate(144.57 365.67) rotate(180)"/>
  <path class="g" d="M220.05,70.23c-4.49-7.18-16.44-22.39-37.22-22.39s-32.73,15.21-37.22,22.39c-1.4,2.24-1.4,5.09,0,7.33,4.49,7.18,16.44,22.39,37.22,22.39s32.73-15.21,37.22-22.39c1.4-2.24,1.4-5.09,0-7.33ZM182.83,60.04c4.62,0,8.37,3.75,8.37,8.37s-3.75,8.37-8.37,8.37-8.37-3.75-8.37-8.37,3.75-8.37,8.37-8.37ZM182.83,93.1c-21.1,0-30.47-19.2-30.47-19.2,0,0,4.26-8.69,13.46-14.38-1.07,2.04-1.8,4.27-2.07,6.64-1.33,11.62,7.72,21.46,19.07,21.46,10.11,0,18.4-7.82,19.15-17.74.5-6.62-5.6-10.72-11.61-13.89-.25-.13-.23-.41-.23-.47,15.96,3.66,23.16,18.39,23.16,18.39,0,0-9.38,19.2-30.47,19.2Z"/>
  <g>
    <path class="f" d="M162.54,172.03l.7,2.1.7-2.1c1.2-3.61,4.04-6.45,7.65-7.65l2.1-.7-2.1-.7c-3.61-1.2-6.45-4.04-7.65-7.65l-.7-2.1-.7,2.1c-1.2,3.61-4.04,6.45-7.65,7.65l-2.1.7,2.1.7c3.61,1.2,6.45,4.04,7.65,7.65Z"/>
    <path class="f" d="M210.28,155.54h-43.75c1.12,2.45,3.22,4.37,5.8,5.23l1.74.58h32.72v31.36h-46.45v-19.94h0c-.92-2.78-3.08-5-5.81-6.04v31.77c0,1.28,1.04,2.32,2.32,2.32h19.16s-.62,2.25-1.74,5.82c-.67,2.13-2.76,2.31-3.33,2.32h-2.47c-.64,0-1.16.52-1.16,1.16v2.32h32.52v-2.32c0-.64-.52-1.16-1.16-1.16h-2.47c-.57,0-2.66-.19-3.33-2.32-.45-1.43-.82-2.64-1.1-3.58,0,0-5.11-.74-10.43-1.78-.37-.07-.33-.34-.28-.44h29.23c1.28,0,2.32-1.04,2.32-2.32v-40.65c0-1.28-1.04-2.32-2.32-2.32Z"/>
    <path class="f" d="M159.96,155.54h-3.1c-1.28,0-2.32,1.04-2.32,2.32v2.75c2.4-.92,4.36-2.75,5.42-5.07Z"/>
    <path class="f" d="M168.34,176.06l1.72.57c1.9.63,3.39,2.12,4.02,4.02l.57,1.72.57-1.72c.63-1.9,2.12-3.39,4.02-4.02l1.72-.57-1.72-.57c-1.9-.63-3.39-2.12-4.02-4.02l-.57-1.72-.57,1.72c-.63,1.9-2.12,3.39-4.02,4.02l-1.72.57Z"/>
  </g>
  <g>
    <path class="j" d="M44.55,91.78h0c-2.15-2.15-2.89-4.91-.74-7.06l16.55-16.55-16.55-16.55c-2.15-2.15-1.42-4.91.74-7.06h0c2.15-2.15,4.91-2.89,7.06-.74l20.45,20.45c2.15,2.15,2.15,5.64,0,7.8l-20.45,20.45c-2.15,2.15-4.91,1.42-7.06-.74Z"/>
    <path class="j" d="M102.05,99.33c0-3.05-1.43-5.51-4.47-5.51h-24.95c-3.05,0-4.47,2.47-4.47,5.51s1.43,5.51,4.47,5.51h24.95c3.05,0,4.47-2.47,4.47-5.51Z"/>
  </g>
  <path class="h" d="M83.25,184.74c6.18-.02,11.03-1.96,14.67-5.78,7.62-7.99,7.05-19.39,7.05-21.26s-.89-1.94-2.1-1.94h-13.13v-2.7h-27.84v15.39c0,10.42,2.67,12.96,2.67,12.96,0,0-.38.32-.89-.07-1.51-1.18-4.71-4.98-4.71-12.89v-15.39h-4.12v2.7h-13.13c-1.21,0-2.1.06-2.1,1.94s-.57,13.26,7.05,21.26c3.64,3.82,8.48,5.76,14.67,5.78,2.33,2.31,4.87,3.59,6.89,3.59,0,0,1.4,6.48-3.49,8.57-4.89,2.09-9.97,3.39-9.89,5.08v10.61h34.9v-10.61c.08-1.69-5-2.99-9.88-5.08-4.89-2.09-3.49-8.57-3.49-8.57,2.02,0,4.56-1.27,6.89-3.59ZM89.82,167.59v-8.37h9.64c.97,0,1.51-.09,1.34,1.34-.46,4.07-1.5,11.06-5.85,15.61-2.19,2.29-4.98,3.7-8.43,4.25,1.94-3.37,3.29-7.7,3.29-12.83ZM49.61,176.18c-4.34-4.54-5.38-11.54-5.85-15.61-.16-1.43.37-1.34,1.34-1.34h9.64v8.37c0,5.13,1.35,9.46,3.29,12.83-3.46-.54-6.25-1.96-8.43-4.25ZM65.94,164.12v-3.23c2.24-.66,4.44-.99,6.53-.99h2.31v18.15h-4.14v-14.34c-1.72,0-3.01.11-4.69.4ZM85.67,204.47v4.17h-27.11v-4.17h27.11Z"/>
  <g>
    <path class="g" d="M286.54,60.42h14.33v20.58h18.33v-20.58h14.33v54.65h-14.33v-21.75h-18.33v21.75h-14.33v-54.65Z"/>
    <path class="g" d="M355.11,60.42h21.24l15.16,54.65h-16.16l-2-9.25h-16.75l-1.83,9.25h-14.83l15.16-54.65ZM370.43,94.58l-5.33-22.49h-.42l-5.58,22.49h11.33Z"/>
    <path class="g" d="M395.51,89.67c0-19.25,12.5-29.91,29.99-29.91,4.08,0,7.16.33,10.75,1.08l-.83,12c-3.83-.5-6.25-.67-10.25-.67-8.66,0-14.58,5.67-14.58,16.41,0,9.5,6.58,14.66,14.16,14.66,4.25,0,7.33-.25,11.58-.92v12c-4,.92-7.33,1.33-12.25,1.33-17.08,0-28.58-8.41-28.58-25.99Z"/>
    <path class="g" d="M442.91,60.42h14.25v21h4.33l12.83-21h16.16l-16.5,25.33,17,29.33h-17.08l-12.25-22.16h-4.5v22.16h-14.25v-54.65Z"/>
    <path class="g" d="M506.3,60.42h21.24l15.16,54.65h-16.16l-2-9.25h-16.75l-1.83,9.25h-14.83l15.16-54.65ZM521.63,94.58l-5.33-22.49h-.42l-5.58,22.49h11.33Z"/>
    <path class="g" d="M551.96,71.84h-14.16v-11.41h42.66v11.41h-14.16v43.24h-14.33v-43.24Z"/>
    <path class="g" d="M587.61,60.42h14.33v20.58h18.33v-20.58h14.33v54.65h-14.33v-21.75h-18.33v21.75h-14.33v-54.65Z"/>
    <path class="g" d="M644.01,88.33c0-18.83,13.83-28.66,28.16-28.66,15.5,0,27.08,9.33,27.08,27.49s-13.83,28.66-28.16,28.66c-15.5,0-27.08-9.33-27.08-27.49ZM684.17,88.25c0-10.83-5.83-16.16-12.5-16.16-7.16,0-12.58,4.92-12.58,15.33s5.83,16,12.5,16c7.16,0,12.58-4.75,12.58-15.16Z"/>
    <path class="g" d="M708.65,60.42h21.66l10.41,41.07h.67v-41.07h12.5v54.65h-21.66l-10.41-41.07h-.67v41.07h-12.5v-54.65Z"/>
    <path class="f" d="M285.38,166.27c0-18.75,10-28.49,22.83-28.49s21.58,9.17,21.58,27.66-10.08,28.49-22.83,28.49-21.58-9.17-21.58-27.66ZM324.95,166.02c0-17.41-7.83-24.08-17.33-24.08s-17.49,6.83-17.49,23.66,7.83,24.16,17.33,24.16,17.5-6.83,17.5-23.74Z"/>
    <path class="f" d="M340.63,138.52h12.91c11.83,0,18.25,5.83,18.25,15.33,0,11.66-7.25,17.91-20.33,17.91-2.33,0-3.91-.08-6.25-.33v21.75h-4.58v-54.65ZM367.04,154.35c0-7.75-4.67-11.83-13.91-11.83h-7.92v24.83c2.25.25,3.75.33,6.25.33,10.5,0,15.58-4.58,15.58-13.33Z"/>
    <path class="f" d="M381.01,138.52h25.99v4.08h-21.41v20.41h19.08v4.08h-19.08v22h21.66v4.08h-26.24v-54.65Z"/>
    <path class="f" d="M416.84,138.52h7.25l24.49,50.07h.33v-50.07h4.33v54.65h-7.25l-24.58-50.15h-.25v50.15h-4.33v-54.65Z"/>
    <path class="f" d="M484.39,166.27c0-18.75,10-28.49,22.83-28.49s21.58,9.17,21.58,27.66-10.08,28.49-22.83,28.49-21.58-9.17-21.58-27.66ZM523.97,166.02c0-17.41-7.83-24.08-17.33-24.08s-17.49,6.83-17.49,23.66,7.83,24.16,17.33,24.16,17.5-6.83,17.5-23.74Z"/>
    <path class="f" d="M531.88,138.52h4.83l16.5,50.24h.33l16.08-50.24h4.75l-17.91,54.65h-6.58l-18-54.65Z"/>
    <path class="f" d="M582.54,138.52h25.99v4.08h-21.41v20.41h19.08v4.08h-19.08v22h21.66v4.08h-26.24v-54.65Z"/>
    <path class="f" d="M618.37,138.52h13.5c11.25,0,17.66,5.42,17.66,14.41,0,8.17-4.75,13.33-11.16,15.16l14.83,25.08h-5.33l-14.16-23.99h-10.75v23.99h-4.58v-54.65ZM632.03,165.18c7.75,0,12.75-3.92,12.75-11.58,0-7.25-4.42-11.08-13.33-11.08h-8.5v22.66h9.08Z"/>
    <path class="f" d="M661.81,138.52h4.58v24.58h26.66v-24.58h4.58v54.65h-4.58v-25.99h-26.66v25.99h-4.58v-54.65Z"/>
    <path class="f" d="M711.59,138.52h25.99v4.08h-21.41v20.41h19.08v4.08h-19.08v22h21.66v4.08h-26.24v-54.65Z"/>
    <path class="f" d="M747.42,138.52h4.58v54.65h-4.58v-54.65Z"/>
    <path class="f" d="M765.85,138.52h13.83c16.5,0,26.58,8.58,26.58,25.83,0,18.75-10.5,28.83-25.99,28.83h-14.41v-54.65ZM780.43,189.09c12.58,0,20.99-8.17,20.99-24.33,0-15.08-8.33-22.24-22.16-22.24h-8.83v46.57h10Z"/>
  </g>
</svg>